<svg width="37" height="36" fill="none" xmlns="http://www.w3.org/2000/svg"><mask id="a" maskUnits="userSpaceOnUse" x="0" y="0" width="37" height="36"><path fill-rule="evenodd" clip-rule="evenodd" d="M.252 0h35.936v36H.252V0z" fill="#fff"/></mask><g mask="url(#a)"><path fill-rule="evenodd" clip-rule="evenodd" d="M26.576 15.054h.287l.36-.036a4.133 4.133 0 002.91-1.818c.144-.234.18-.468 0-.684-.18-.216-.413-.216-.665-.09a10.29 10.29 0 01-2.264.9c-.739.158-1.49.254-2.245.288-.27 0-.54.036-.63.36-.09.324.18.504.414.63a3.678 3.678 0 001.833.45zM6.883 12.66c.004.266.034.532.09.792.053.288.18.486.485.504.305.018.467-.18.539-.45a9.94 9.94 0 012.282-3.924c.18-.216.449-.45.233-.774s-.539-.198-.826-.126a4.265 4.265 0 00-2.803 3.978zm13.494 10.476a6.042 6.042 0 00-2.696.576 5.683 5.683 0 00-3.18 3.474c-.108.36-.036.576.198.72.233.144.467.072.718-.216a12.292 12.292 0 011.815-1.746c1.258-.954 2.713-1.458 4.277-1.656.341-.036.503-.216.52-.486.019-.27-.179-.468-.502-.54a4.363 4.363 0 00-1.15-.126zm-6.828-3.978a3.291 3.291 0 00-3.288-3.294 3.291 3.291 0 00-3.289 3.294 3.29 3.29 0 003.289 3.294h.018a3.291 3.291 0 003.27-3.294zm9.343-.018a3.255 3.255 0 003.27 3.24 3.255 3.255 0 003.234-3.276 3.255 3.255 0 00-3.27-3.24 3.255 3.255 0 00-3.234 3.24v.036zm13.296-1.134c-.003 9.941-8.05 17.997-17.974 17.994C8.291 35.997.25 27.935.252 17.994.256 8.053 8.303-.003 18.227 0c.153 0 .307.002.46.006 9.741.254 17.505 8.239 17.501 18z" fill="#FECA00"/></g><path fill-rule="evenodd" clip-rule="evenodd" d="M13.549 19.158a3.29 3.29 0 01-3.306 3.276 3.291 3.291 0 01-3.27-3.312 3.29 3.29 0 013.306-3.276 3.291 3.291 0 013.27 3.312zm9.343-.018a3.255 3.255 0 013.288-3.294h.018a3.29 3.29 0 013.288 3.294 3.291 3.291 0 01-3.288 3.294 3.291 3.291 0 01-3.288-3.294v-.018l-.018.018z" fill="#171615"/><path fill-rule="evenodd" clip-rule="evenodd" d="M20.377 23.136c.38-.006.761.036 1.132.126.359.072.52.252.503.54-.018.288-.18.432-.521.486a8.705 8.705 0 00-4.277 1.656 12.307 12.307 0 00-1.797 1.728c-.27.288-.485.36-.718.216-.234-.144-.324-.36-.216-.72.54-1.62 1.653-2.736 3.18-3.456a6.064 6.064 0 012.714-.576z" fill="#181715"/><path fill-rule="evenodd" clip-rule="evenodd" d="M26.558 15.054a3.66 3.66 0 01-1.815-.45c-.252-.126-.485-.288-.413-.63.072-.342.359-.36.61-.36a13.72 13.72 0 002.247-.306c.786-.204 1.546-.5 2.264-.882.251-.126.466-.144.664.09.198.234.144.45 0 .666a4.113 4.113 0 01-3.27 1.872h-.287zM6.864 12.66c0-1.764 1.223-3.492 2.804-3.96.287-.09.61-.234.826.108.216.342-.036.558-.233.774a9.958 9.958 0 00-2.282 3.924c-.072.27-.234.468-.54.45-.305-.018-.43-.216-.485-.504a4.223 4.223 0 01-.09-.792z" fill="#191715"/></svg>