<svg width="37" height="36" fill="none" xmlns="http://www.w3.org/2000/svg"><mask id="a" maskUnits="userSpaceOnUse" x="0" y="0" width="37" height="36"><path fill-rule="evenodd" clip-rule="evenodd" d="M.56 0h35.935v36H.56V0z" fill="#fff"/></mask><g mask="url(#a)"><path fill-rule="evenodd" clip-rule="evenodd" d="M18.548 23.904a34.815 34.815 0 00-4.564.234c-.36.054-.575.27-.575.612 0 .342.215.54.593.576l.97.108c2.674.214 5.363.183 8.032-.09.413-.054.629-.252.629-.594 0-.342-.198-.558-.593-.612a34.481 34.481 0 00-4.492-.216v-.018zm11.212-4.752a3.291 3.291 0 00-3.27-3.312 3.291 3.291 0 00-3.307 3.276 3.291 3.291 0 003.307 3.312 3.273 3.273 0 003.27-3.276zm-22.46 0a3.291 3.291 0 003.306 3.276 3.292 3.292 0 003.27-3.312 3.291 3.291 0 00-3.306-3.276 3.291 3.291 0 00-3.27 3.294v.018zM18.53 0c9.923.001 17.966 8.061 17.965 18.003C36.494 27.943 28.448 36 18.525 36 8.6 35.998.558 27.939.558 17.997c0-.1 0-.202.003-.303C.719 7.868 8.72-.011 18.53 0z" fill="#FECA00"/></g><path fill-rule="evenodd" clip-rule="evenodd" d="M29.76 19.152a3.29 3.29 0 01-3.306 3.276 3.291 3.291 0 01-3.27-3.312 3.29 3.29 0 013.306-3.276 3.291 3.291 0 013.27 3.294v.018zm-22.46 0a3.273 3.273 0 013.234-3.312h.036a3.291 3.291 0 013.306 3.276 3.291 3.291 0 01-3.27 3.312A3.291 3.291 0 017.3 19.152v-.018.018z" fill="#171615"/><path fill-rule="evenodd" clip-rule="evenodd" d="M18.53 23.922c1.5-.02 3.001.059 4.492.234.413.036.629.252.61.594-.017.342-.215.54-.628.594-2.669.28-5.357.315-8.032.108l-.97-.108c-.36-.054-.575-.27-.593-.576-.018-.306.197-.576.575-.612a34.78 34.78 0 014.564-.234h-.018z" fill="#191715"/></svg>