<svg width="37" height="36" fill="none" xmlns="http://www.w3.org/2000/svg"><mask id="a" maskUnits="userSpaceOnUse" x="0" y="0" width="37" height="36"><path fill-rule="evenodd" clip-rule="evenodd" d="M.812 0h35.936v36H.812V0z" fill="#fff"/></mask><g mask="url(#a)"><path fill-rule="evenodd" clip-rule="evenodd" d="M18.623 27.513c1.1-.015 2.01-.18 2.864-.607 1.079-.529 1.927-1.29 2.369-2.44.14-.36.063-.645-.205-.793-.268-.147-.566-.068-.793.262a3.785 3.785 0 01-1.045 1.027 5.459 5.459 0 01-3.987.798c-1.294-.209-2.403-.769-3.165-1.892a.558.558 0 00-1.002.483c.132.416.341.803.618 1.14 1.16 1.426 2.722 1.962 4.345 2.024l.001-.002zM10.83 15.876a3.282 3.282 0 00-3.28 3.285 3.282 3.282 0 003.28 3.285c1.81 0 3.279-1.47 3.279-3.285v-.007a3.275 3.275 0 00-3.276-3.274h-.003v-.004zm15.914 0a3.285 3.285 0 00-3.282 3.288 3.285 3.285 0 003.282 3.287 3.285 3.285 0 003.282-3.287 3.285 3.285 0 00-3.282-3.288zM18.742 36C8.845 36 .839 27.965.812 18.03.795 8.09 8.826.017 18.749 0c9.924-.017 17.982 8.028 17.999 17.97.017 9.94-8.014 18.013-17.938 18.03h-.068z" fill="#FECA00"/></g><path fill-rule="evenodd" clip-rule="evenodd" d="M18.622 27.517c-1.618-.062-3.183-.598-4.343-2.024a3.453 3.453 0 01-.618-1.14.56.56 0 011.002-.483c.762 1.125 1.87 1.683 3.164 1.892a5.457 5.457 0 003.987-.798c.412-.271.768-.62 1.046-1.028.228-.33.507-.42.793-.26.285.158.343.428.204.791-.442 1.152-1.29 1.912-2.368 2.441-.855.421-1.768.594-2.867.609zM10.829 15.88a3.283 3.283 0 013.273 3.293 3.283 3.283 0 01-3.288 3.278 3.283 3.283 0 01-3.272-3.293 3.283 3.283 0 013.287-3.278zm15.912 0a3.284 3.284 0 013.272 3.295 3.284 3.284 0 01-3.29 3.278 3.284 3.284 0 01-3.272-3.296v-.014a3.278 3.278 0 013.29-3.263z" fill="#171615"/></svg>