<svg width="48" height="29" fill="none" xmlns="http://www.w3.org/2000/svg"><path clip-rule="evenodd" d="M12 24.5a3.5 3.5 0 11-7 0 3.5 3.5 0 017 0zm24 0a3.5 3.5 0 11-7 0 3.5 3.5 0 017 0z" stroke="#000" stroke-width="2" stroke-linecap="round" stroke-linejoin="round"/><path d="M36.938 25h3.083A1.968 1.968 0 0042 23.044V17.56c0-.351-.172-.682-.462-.886l-2.08-1.467a3.878 3.878 0 00-2.233-.707h-7.374l-3.42-3.717A5.548 5.548 0 0022.35 9H8.198c-1.044 0-2.046.41-2.783 1.139l-4.076 4.025a1.143 1.143 0 00-.339.812v6.61c0 .604.116 1.202.343 1.763l.17.422A1.98 1.98 0 003.354 25h.684m7.962.5h17m-28-11h29M16.5 9v5.5M6 14.5L10 9m9 8.5h2m-13 0h2m1 4h19" stroke="#000" stroke-width="2" stroke-linecap="round" stroke-linejoin="round"/><path d="M38 15v2.532c0 .811.752 1.468 1.679 1.468H42M2 17.5h.993c.556 0 1.007.338 1.007.756v1.488c0 .418-.451.756-1.007.756H2" stroke="#000" stroke-width="2" stroke-linecap="round" stroke-linejoin="round"/><rect x="20" width="28" height="19" rx="3" fill="#F9B851" fill-opacity=".3"/></svg>