<svg width="9" height="11" fill="none" xmlns="http://www.w3.org/2000/svg"><path fill-rule="evenodd" clip-rule="evenodd" d="M.44.44A1.5 1.5 0 011.5 0h4a.5.5 0 01.354.146l3 3A.5.5 0 019 3.5v6A1.5 1.5 0 017.5 11h-6A1.5 1.5 0 010 9.5v-8C0 1.102.158.72.44.44zM1.5 1a.5.5 0 00-.5.5v8a.5.5 0 00.5.5h6a.5.5 0 00.5-.5V3.707L5.293 1H1.5z" fill="#45A56B"/><path fill-rule="evenodd" clip-rule="evenodd" d="M5.5 0a.5.5 0 01.5.5V3h2.5a.5.5 0 010 1h-3a.5.5 0 01-.5-.5v-3a.5.5 0 01.5-.5zM2 6a.5.5 0 01.5-.5h4a.5.5 0 010 1h-4A.5.5 0 012 6zm0 2a.5.5 0 01.5-.5h4a.5.5 0 010 1h-4A.5.5 0 012 8zm0-4a.5.5 0 01.5-.5h1a.5.5 0 010 1h-1A.5.5 0 012 4z" fill="#45A56B"/></svg>