<svg width="18" height="20" fill="none" xmlns="http://www.w3.org/2000/svg"><path d="M15.927 15.929c-.41 0-.811.12-1.152.343-.34.224-.607.542-.763.914a2.002 2.002 0 00.45 2.218c.29.285.659.479 1.06.557a2.11 2.11 0 001.199-.116c.378-.154.702-.415.93-.75a2.01 2.01 0 00-.258-2.57 2.076 2.076 0 00-1.466-.596zM17.535 0H.465a.47.47 0 00-.329.134A.453.453 0 000 .456v4.802c0 .12.049.237.136.322a.469.469 0 00.328.134h5.3v13.829c0 .12.048.237.135.322a.47.47 0 00.328.134h1.355c2.78 0 4.652-1.577 4.652-3.925V5.713h5.298a.47.47 0 00.329-.134.454.454 0 00.136-.322V.456a.453.453 0 00-.135-.321.47.47 0 00-.327-.135z" fill="#45A56B"/></svg>