<svg width="15" height="15" fill="none" xmlns="http://www.w3.org/2000/svg"><path fill-rule="evenodd" clip-rule="evenodd" d="M8 5.357c.92 0 1.667-.72 1.667-1.607 0-.888-.747-1.607-1.667-1.607s-1.667.72-1.667 1.607c0 .888.747 1.607 1.667 1.607zM8 7.5c2.148 0 3.889-1.679 3.889-3.75C11.889 1.679 10.148 0 8 0 5.852 0 4.111 1.679 4.111 3.75 4.111 5.821 5.852 7.5 8 7.5z" fill="#000"/><path fill-rule="evenodd" clip-rule="evenodd" d="M3.09 7.614c.242-.544.895-.796 1.459-.563L8 8.477l3.451-1.426c.564-.233 1.217.019 1.459.563.242.543-.02 1.173-.584 1.406L9.63 10.135l2.09 3.226a1.05 1.05 0 01-.352 1.476 1.135 1.135 0 01-1.532-.34L8 11.663l-1.835 2.832a1.135 1.135 0 01-1.531.341 1.05 1.05 0 01-.354-1.476l2.09-3.226L3.675 9.02c-.564-.233-.826-.863-.584-1.406z" fill="#000"/></svg>