<svg xmlns="http://www.w3.org/2000/svg" xmlns:xlink="http://www.w3.org/1999/xlink"><symbol id="icon-close"><path fill-rule="evenodd" clip-rule="evenodd" d="M13 26c7.18 0 13-5.82 13-13S20.18 0 13 0 0 5.82 0 13s5.82 13 13 13z" fill="#000" opacity=".1"/><path fill-rule="evenodd" clip-rule="evenodd" d="M18.165 16.228a1.37 1.37 0 11-1.937 1.939l-3.23-3.228-3.228 3.228a1.37 1.37 0 11-1.937-1.94L11.061 13 7.833 9.772a1.373 1.373 0 01-.003-1.94 1.37 1.37 0 011.94 0l3.228 3.227 3.23-3.227a1.37 1.37 0 111.937 1.94L14.939 13l3.226 3.228z" fill="#fff"/></symbol><symbol id="icon-doc"><path fill-rule="evenodd" clip-rule="evenodd" d="M.44.44A1.5 1.5 0 011.5 0h4a.5.5 0 01.354.146l3 3A.5.5 0 019 3.5v6A1.5 1.5 0 017.5 11h-6A1.5 1.5 0 010 9.5v-8C0 1.102.158.72.44.44zM1.5 1a.5.5 0 00-.5.5v8a.5.5 0 00.5.5h6a.5.5 0 00.5-.5V3.707L5.293 1H1.5z" fill="#45A56B"/><path fill-rule="evenodd" clip-rule="evenodd" d="M5.5 0a.5.5 0 01.5.5V3h2.5a.5.5 0 010 1h-3a.5.5 0 01-.5-.5v-3a.5.5 0 01.5-.5zM2 6a.5.5 0 01.5-.5h4a.5.5 0 010 1h-4A.5.5 0 012 6zm0 2a.5.5 0 01.5-.5h4a.5.5 0 010 1h-4A.5.5 0 012 8zm0-4a.5.5 0 01.5-.5h1a.5.5 0 010 1h-1A.5.5 0 012 4z" fill="#45A56B"/></symbol><symbol id="icon-external"><path d="M9.545 0H5.91a.455.455 0 000 .91h2.539l-4.68 4.677a.455.455 0 00.643.642l4.679-4.678V4.09a.455.455 0 00.909 0V.455A.455.455 0 009.545 0z" fill="#BDBDBD"/><path d="M7.727 4.546A.455.455 0 007.273 5v4.091H.909V2.727H5a.455.455 0 000-.909H.455A.455.455 0 000 2.273v7.273c0 .25.204.454.455.454h7.272a.455.455 0 00.455-.454V5a.455.455 0 00-.455-.454z" fill="#BDBDBD"/></symbol><symbol id="icon-file"><path fill-rule="evenodd" clip-rule="evenodd" d="M.44.44A1.5 1.5 0 011.5 0h4a.5.5 0 01.354.146l3 3A.5.5 0 019 3.5v6A1.5 1.5 0 017.5 11h-6A1.5 1.5 0 010 9.5v-8C0 1.102.158.72.44.44zM1.5 1a.5.5 0 00-.5.5v8a.5.5 0 00.5.5h6a.5.5 0 00.5-.5V3.707L5.293 1H1.5z" fill="#45A56B"/><path fill-rule="evenodd" clip-rule="evenodd" d="M5.5 0a.5.5 0 01.5.5V3h2.5a.5.5 0 010 1h-3a.5.5 0 01-.5-.5v-3a.5.5 0 01.5-.5zM2 6a.5.5 0 01.5-.5h4a.5.5 0 010 1h-4A.5.5 0 012 6zm0 2a.5.5 0 01.5-.5h4a.5.5 0 010 1h-4A.5.5 0 012 8zm0-4a.5.5 0 01.5-.5h1a.5.5 0 010 1h-1A.5.5 0 012 4z" fill="#45A56B"/></symbol><symbol id="icon-like-green"><path d="M3.345 9.905l.456-.595a.75.75 0 00-.069-.047l-.387.642zM10 3.045l-.607.44a.75.75 0 001.214 0L10 3.045zm6.612 6.886l-.38-.646a.746.746 0 00-.076.05l.456.596zM10 15l-.456.595a.75.75 0 00.912 0L10 15zM3.732 9.263C2.534 8.541 1.75 7.261 1.75 5.813H.25c0 2.008 1.09 3.76 2.708 4.735l.774-1.285zM1.75 5.813c0-2.224 1.86-4.063 4.2-4.063V.25C2.822.25.25 2.72.25 5.813h1.5zm4.2-4.063c1.429 0 2.685.689 3.443 1.735l1.214-.88A5.737 5.737 0 005.95.25v1.5zm4.657 1.735A4.237 4.237 0 0114.05 1.75V.25c-1.92 0-3.623.927-4.657 2.355l1.214.88zM14.05 1.75c2.34 0 4.2 1.839 4.2 4.063h1.5c0-3.092-2.572-5.563-5.7-5.563v1.5zm4.2 4.063c0 1.462-.8 2.754-2.018 3.472l.761 1.292c1.645-.97 2.757-2.735 2.757-4.764h-1.5zm-2.094 3.523l-6.612 5.069.912 1.19 6.613-5.069-.913-1.19zm-5.7 5.069L3.8 9.31l-.912 1.191 6.655 5.095.912-1.191z" fill="#45A56B"/></symbol><symbol id="icon-like"><path d="M3.345 9.905l.456-.595a.75.75 0 00-.069-.047l-.387.642zM10 3.045l-.607.44a.75.75 0 001.214 0L10 3.045zm6.612 6.886l-.38-.646a.746.746 0 00-.076.05l.456.596zM10 15l-.456.595a.75.75 0 00.912 0L10 15zM3.732 9.263C2.534 8.541 1.75 7.261 1.75 5.813H.25c0 2.008 1.09 3.76 2.708 4.735l.774-1.285zM1.75 5.813c0-2.224 1.86-4.063 4.2-4.063V.25C2.822.25.25 2.72.25 5.813h1.5zm4.2-4.063c1.429 0 2.685.689 3.443 1.735l1.214-.88A5.737 5.737 0 005.95.25v1.5zm4.657 1.735A4.237 4.237 0 0114.05 1.75V.25c-1.92 0-3.623.927-4.657 2.355l1.214.88zM14.05 1.75c2.34 0 4.2 1.839 4.2 4.063h1.5c0-3.092-2.572-5.563-5.7-5.563v1.5zm4.2 4.063c0 1.462-.8 2.754-2.018 3.472l.761 1.292c1.645-.97 2.757-2.735 2.757-4.764h-1.5zm-2.094 3.523l-6.612 5.069.912 1.19 6.613-5.069-.913-1.19zm-5.7 5.069L3.8 9.31l-.912 1.191 6.655 5.095.912-1.191z" fill="#000"/></symbol><symbol id="icon-other-realty-boxes"><path d="M12.07 9.725l27.438 8.258-20.142 19.45L12.07 9.726z" fill="#18A452" fill-opacity=".197"/><path d="M4.386 25.822l15.242 4.517v19.193L4.386 45.015V30.34" stroke="#000" stroke-width="2" stroke-linecap="round" stroke-linejoin="round"/><path clip-rule="evenodd" d="M15.113 33.725L1 29.21l3.386-3.386 15.243 4.515-4.516 3.387z" stroke="#000" stroke-width="2" stroke-linecap="round" stroke-linejoin="round"/><path d="M19.629 49.532l14.113-3.387V30.903" stroke="#000" stroke-width="2" stroke-linecap="round" stroke-linejoin="round"/><path clip-rule="evenodd" d="M19.629 30.339l3.952 2.822L36 29.775l-3.387-2.824-12.984 3.388z" stroke="#000" stroke-width="2" stroke-linecap="round" stroke-linejoin="round"/><path d="M32.613 26.951L19.629 23 4.386 25.822M19.629 23v3.951m14.113 11.996l-4.517.988v2.823l4.517-.988" stroke="#000" stroke-width="2" stroke-linecap="round" stroke-linejoin="round"/></symbol><symbol id="icon-other-realty-commercial"><path d="M14.008 29c7.736 0 11.897-6.222 11.897-13.897 0-7.676 1.651-16.599-8.797-14.89C6.66 1.92 0 7.426 0 15.102 0 22.778 6.271 29 14.008 29z" fill="#C7D3DD" fill-opacity=".8"/><path clip-rule="evenodd" d="M8 35.526h12.918V12.92H8v22.606zm12.918 0h12.917V9.229H20.918v26.297zm12.917 0h12.918V19.84H33.835v15.686z" stroke="#000" stroke-width="2" stroke-linecap="round" stroke-linejoin="round"/><path d="M12.152 18.072h4.614m-4.614 6.381h4.614M12.152 30.5h4.614m21.221-6.047h4.614m-4.614 7.382h4.614m-4.614-3.691h4.614M24.608 12.92h1.384m-1.384 4.729h1.384m-1.384 4.728h1.384m-1.384 9.458h1.384m-1.384-4.729h1.384M28.76 12.92h1.384m-1.384 4.729h1.384m-1.384 4.728h1.384m-1.384 9.458h1.384m-1.384-4.729h1.384M44.446 16.61v2.769M29.222 6v2.768m-12.457.922v2.769" stroke="#000" stroke-width="2" stroke-linecap="round" stroke-linejoin="round"/></symbol><symbol id="icon-other-realty-parking"><path clip-rule="evenodd" d="M12 24.5a3.5 3.5 0 11-7 0 3.5 3.5 0 017 0zm24 0a3.5 3.5 0 11-7 0 3.5 3.5 0 017 0z" stroke="#000" stroke-width="2" stroke-linecap="round" stroke-linejoin="round"/><path d="M36.938 25h3.083A1.968 1.968 0 0042 23.044V17.56c0-.351-.172-.682-.462-.886l-2.08-1.467a3.878 3.878 0 00-2.233-.707h-7.374l-3.42-3.717A5.548 5.548 0 0022.35 9H8.198c-1.044 0-2.046.41-2.783 1.139l-4.076 4.025a1.143 1.143 0 00-.339.812v6.61c0 .604.116 1.202.343 1.763l.17.422A1.98 1.98 0 003.354 25h.684m7.962.5h17m-28-11h29M16.5 9v5.5M6 14.5L10 9m9 8.5h2m-13 0h2m1 4h19" stroke="#000" stroke-width="2" stroke-linecap="round" stroke-linejoin="round"/><path d="M38 15v2.532c0 .811.752 1.468 1.679 1.468H42M2 17.5h.993c.556 0 1.007.338 1.007.756v1.488c0 .418-.451.756-1.007.756H2" stroke="#000" stroke-width="2" stroke-linecap="round" stroke-linejoin="round"/><rect x="20" width="28" height="19" rx="3" fill="#F9B851" fill-opacity=".3"/></symbol><symbol id="icon-zoom"><path d="M9.75 4.5h-1.5v3.75H4.5v1.5h3.75v3.75h1.5V9.75h3.75v-1.5H9.75V4.5z" fill="#fff"/><path d="M15.866 14.806A8.956 8.956 0 0018 9c0-4.963-4.037-9-9-9S0 4.037 0 9s4.037 9 9 9a8.956 8.956 0 005.806-2.134L22.939 24 24 22.94l-8.134-8.134zM9 16.5c-4.135 0-7.5-3.365-7.5-7.5S4.865 1.5 9 1.5s7.5 3.365 7.5 7.5-3.365 7.5-7.5 7.5z" fill="#fff"/></symbol></svg>