<svg width="36" height="36" fill="none" xmlns="http://www.w3.org/2000/svg"><mask id="a" maskUnits="userSpaceOnUse" x="0" y="0" width="36" height="36"><path fill-rule="evenodd" clip-rule="evenodd" d="M.064 0H36v36H.064V0z" fill="#fff"/></mask><g mask="url(#a)"><path fill-rule="evenodd" clip-rule="evenodd" d="M18.032 28.656c.408.005.815-.056 1.204-.18a4.536 4.536 0 003.054-4.842c-.035-.18-.125-.144-.233-.108-.747.21-1.51.355-2.282.432a15.91 15.91 0 01-5.75-.432c-.18-.054-.18 0-.197.144-.058.492-.034.991.071 1.476a4.315 4.315 0 004.133 3.528v-.018zm14.662-11.88a3.606 3.606 0 00-.521-2.034c-.719-1.206-1.797-1.89-3.216-1.854-.989.036-1.797.54-2.48 1.224-.144.126-.18.09-.27-.036a3.885 3.885 0 00-.772-.81c-.845-.684-1.797-.954-2.875-.684a4.015 4.015 0 00-2.821 4.86c.256.93.663 1.812 1.204 2.61a22.416 22.416 0 004.492 4.932c.126.126.233.09.36 0a27.335 27.335 0 003.054-2.232 15.425 15.425 0 003.09-3.456 4.32 4.32 0 00.773-2.52h-.018zm-16.28-.27a4 4 0 00-1.526-3.24 3.23 3.23 0 00-3.342-.558 3.685 3.685 0 00-1.654 1.332c-.161.198-.233.18-.359 0a3.533 3.533 0 00-.52-.432c-.971-.702-2.031-.954-3.2-.504-2.227.846-3.108 3.546-1.976 5.688a12.146 12.146 0 002.318 2.988 24.152 24.152 0 004.133 3.204.251.251 0 00.36-.036 26.158 26.158 0 002.712-2.61 15.425 15.425 0 002.588-3.834 4.78 4.78 0 00.485-1.998h-.018zM18.033 36C8.108 36 .064 27.941.064 18S8.108 0 18.032 0 36 8.059 36 18c.02 9.921-7.992 17.98-17.896 18h-.072z" fill="#FECA00"/></g><path fill-rule="evenodd" clip-rule="evenodd" d="M32.712 16.776a4.325 4.325 0 01-.755 2.52 15.434 15.434 0 01-3.072 3.456 27.34 27.34 0 01-3.073 2.232c-.126.072-.233.126-.36 0a22.303 22.303 0 01-4.491-4.95 8.864 8.864 0 01-1.204-2.61c-.521-2.16.755-4.338 2.839-4.86 1.078-.27 2.012 0 2.857.684.296.237.557.516.772.828.09.126.126.144.27.018.683-.684 1.491-1.188 2.48-1.206 1.437-.054 2.48.648 3.216 1.854a3.6 3.6 0 01.539 2.034h-.018zm-16.297-.27a4.779 4.779 0 01-.467 1.98 15.393 15.393 0 01-2.588 3.87 26.33 26.33 0 01-2.695 2.628.251.251 0 01-.355.022l-.004-.004a24.17 24.17 0 01-4.133-3.222 12.166 12.166 0 01-2.336-2.988c-1.132-2.16-.251-4.86 1.977-5.688 1.15-.45 2.21-.198 3.198.504.182.134.35.285.503.45.144.144.234.18.36-.018.413-.6.994-1.063 1.67-1.332a3.283 3.283 0 013.36.54 3.999 3.999 0 011.528 3.24l-.018.018z" fill="#E84047"/><path fill-rule="evenodd" clip-rule="evenodd" d="M18.032 28.674a4.314 4.314 0 01-4.133-3.528 4.397 4.397 0 01-.09-1.458c.019-.144.037-.216.198-.18 1.873.499 3.822.652 5.75.45a13.187 13.187 0 002.282-.432c.126-.018.215-.072.233.126a4.5 4.5 0 01-3.054 4.842 3.811 3.811 0 01-1.186.18z" fill="#171615"/></svg>