<svg width="36" height="36" fill="none" xmlns="http://www.w3.org/2000/svg"><mask id="a" maskUnits="userSpaceOnUse" x="0" y="0" width="36" height="36"><path fill-rule="evenodd" clip-rule="evenodd" d="M0 0h35.758v36H0V0z" fill="#fff"/></mask><g mask="url(#a)"><path fill-rule="evenodd" clip-rule="evenodd" d="M17.879 0c9.874 0 17.878 8.059 17.878 18S27.754 36 17.88 36C8.026 36 .029 27.974 0 18.054-.05 8.133 7.9.05 17.753 0h.126z" fill="#FECA00"/></g><path fill-rule="evenodd" clip-rule="evenodd" d="M12.794 26.863c.027-.183.088-.36.18-.52a4.723 4.723 0 013.085-2.6c2.164-.649 4.184-.333 5.952 1.227a3.839 3.839 0 011.082 1.708.584.584 0 01-.253.724.532.532 0 01-.721-.186 4.51 4.51 0 00-3.192-1.987 5.42 5.42 0 00-3.788.687c-.525.308-.97.74-1.298 1.263a.534.534 0 01-.668.242.539.539 0 01-.36-.558h-.019zm-6.041-7.26a3.293 3.293 0 011.082-2.488c.162-.149.144-.186 0-.316a11.712 11.712 0 01-1.984-1.745c-.18-.204-.253-.427-.072-.65.18-.223.396-.204.63-.093 1.029.52 1.985 1.188 2.977 1.764.992.576 1.984 1.17 3.066 1.541.595.223 1.226.409 1.876.279a3.53 3.53 0 00.559-.204c.432-.168.703.037.667.501-.054.65-.433 1.058-.974 1.3a2.06 2.06 0 01-1.046.223c-.18-.019-.253.018-.27.222-.182 1.847-1.784 3.193-3.577 3.006-1.442-.15-2.614-1.26-2.88-2.727a3.832 3.832 0 01-.054-.613zm21.174-2.637a3.451 3.451 0 011.19 1.969c.354 1.82-.793 3.59-2.561 3.955-1.768.364-3.488-.817-3.842-2.637-.036-.186 0-.427-.108-.52-.108-.093-.36-.037-.541-.037-.848-.074-1.515-.613-1.66-1.337-.053-.223-.09-.464.109-.631a.493.493 0 01.613-.019c.685.372 1.37.186 2.056 0 1.154-.316 2.165-.965 3.21-1.56 1.029-.557 1.984-1.244 3.013-1.782.075-.042.154-.08.234-.112a.427.427 0 01.578.206.455.455 0 01-.073.5 8.869 8.869 0 01-1.443 1.393l-.776.612z" fill="#171615"/></svg>