<svg width="26" height="26" fill="none" xmlns="http://www.w3.org/2000/svg"><path fill-rule="evenodd" clip-rule="evenodd" d="M13 26c7.18 0 13-5.82 13-13S20.18 0 13 0 0 5.82 0 13s5.82 13 13 13z" fill="#000" opacity=".1"/><path fill-rule="evenodd" clip-rule="evenodd" d="M18.165 16.228a1.37 1.37 0 11-1.937 1.939l-3.23-3.228-3.228 3.228a1.37 1.37 0 11-1.937-1.94L11.061 13 7.833 9.772a1.373 1.373 0 01-.003-1.94 1.37 1.37 0 011.94 0l3.228 3.227 3.23-3.227a1.37 1.37 0 111.937 1.94L14.939 13l3.226 3.228z" fill="#fff"/></svg>