<svg width="20" height="16" fill="none" xmlns="http://www.w3.org/2000/svg"><path d="M3.345 9.905l.456-.595a.75.75 0 00-.069-.047l-.387.642zM10 3.045l-.607.44a.75.75 0 001.214 0L10 3.045zm6.612 6.886l-.38-.646a.746.746 0 00-.076.05l.456.596zM10 15l-.456.595a.75.75 0 00.912 0L10 15zM3.732 9.263C2.534 8.541 1.75 7.261 1.75 5.813H.25c0 2.008 1.09 3.76 2.708 4.735l.774-1.285zM1.75 5.813c0-2.224 1.86-4.063 4.2-4.063V.25C2.822.25.25 2.72.25 5.813h1.5zm4.2-4.063c1.429 0 2.685.689 3.443 1.735l1.214-.88A5.737 5.737 0 005.95.25v1.5zm4.657 1.735A4.237 4.237 0 0114.05 1.75V.25c-1.92 0-3.623.927-4.657 2.355l1.214.88zM14.05 1.75c2.34 0 4.2 1.839 4.2 4.063h1.5c0-3.092-2.572-5.563-5.7-5.563v1.5zm4.2 4.063c0 1.462-.8 2.754-2.018 3.472l.761 1.292c1.645-.97 2.757-2.735 2.757-4.764h-1.5zm-2.094 3.523l-6.612 5.069.912 1.19 6.613-5.069-.913-1.19zm-5.7 5.069L3.8 9.31l-.912 1.191 6.655 5.095.912-1.191z" fill="#45A56B"/></svg>