<svg width="48" height="37" fill="none" xmlns="http://www.w3.org/2000/svg"><path d="M14.008 29c7.736 0 11.897-6.222 11.897-13.897 0-7.676 1.651-16.599-8.797-14.89C6.66 1.92 0 7.426 0 15.102 0 22.778 6.271 29 14.008 29z" fill="#C7D3DD" fill-opacity=".8"/><path clip-rule="evenodd" d="M8 35.526h12.918V12.92H8v22.606zm12.918 0h12.917V9.229H20.918v26.297zm12.917 0h12.918V19.84H33.835v15.686z" stroke="#000" stroke-width="2" stroke-linecap="round" stroke-linejoin="round"/><path d="M12.152 18.072h4.614m-4.614 6.381h4.614M12.152 30.5h4.614m21.221-6.047h4.614m-4.614 7.382h4.614m-4.614-3.691h4.614M24.608 12.92h1.384m-1.384 4.729h1.384m-1.384 4.728h1.384m-1.384 9.458h1.384m-1.384-4.729h1.384M28.76 12.92h1.384m-1.384 4.729h1.384m-1.384 4.728h1.384m-1.384 9.458h1.384m-1.384-4.729h1.384M44.446 16.61v2.769M29.222 6v2.768m-12.457.922v2.769" stroke="#000" stroke-width="2" stroke-linecap="round" stroke-linejoin="round"/></svg>