<svg width="12" height="12" fill="none" xmlns="http://www.w3.org/2000/svg"><path d="M11.796 2.49l-.03-.031a.693.693 0 00-1.003 0L9.683 3.59a.145.145 0 01-.207.005L7.962 2.147a.776.776 0 00-.539-.218H5.171a.203.203 0 00-.143.058L3.12 3.865c-.28.29-.298.758-.042 1.042a.694.694 0 00.52.236h.004a.698.698 0 00.517-.236l1.349-1.478h.482L2.803 7.072H.863A.858.858 0 000 7.883a.867.867 0 00.226.636c.156.17.374.267.6.267h2.896a.203.203 0 00.151-.068l1.484-1.64 1.247 1.351-.376 2.494c-.095.413.096.834.454 1a.8.8 0 00.71-.011.852.852 0 00.44-.582l.644-3.576a.22.22 0 00-.058-.191L6.702 5.786l1.364-1.411.951.985a.702.702 0 00.994 0l1.785-1.849a.732.732 0 00.204-.51.732.732 0 00-.204-.512z" fill="#18A452"/><path d="M9.514 2.571c.685 0 1.241-.576 1.241-1.285C10.755.576 10.2 0 9.515 0 8.83 0 8.272.577 8.272 1.286c0 .709.557 1.285 1.241 1.285z" fill="#18A452"/></svg>