<svg width="28" height="40" fill="none" xmlns="http://www.w3.org/2000/svg"><path d="M14 0C6.28 0 0 6.499 0 14.486 0 24.4 12.529 38.953 13.062 39.567a1.233 1.233 0 001.876 0C15.471 38.953 28 24.4 28 14.487 28 6.498 21.72 0 14 0z" fill="#45A56B"/><path d="M18.964 20.491a1.49 1.49 0 00-1.372.914 1.474 1.474 0 00.322 1.613 1.487 1.487 0 002.536-1.047 1.477 1.477 0 00-.917-1.367 1.489 1.489 0 00-.569-.113zm1.153-11.584H7.883a.334.334 0 00-.333.332v3.492a.331.331 0 00.333.332h3.797v10.056a.333.333 0 00.333.332h.97c1.993 0 3.335-1.147 3.335-2.855v-7.533h3.797a.334.334 0 00.333-.332V9.239a.332.332 0 00-.331-.332z" fill="#fff"/></svg>