<svg width="15" height="15" fill="none" xmlns="http://www.w3.org/2000/svg"><path d="M14.866 11.136c-.04-.064-.29-.57-1.49-1.611-1.256-1.09-1.087-.913.426-2.799.922-1.148 1.29-1.849 1.175-2.148-.11-.286-.788-.21-.788-.21l-2.254.012s-.166-.021-.291.048a.6.6 0 00-.199.226s-.357.888-.833 1.644c-1.005 1.594-1.407 1.678-1.57 1.58-.382-.231-.287-.928-.287-1.422 0-1.545.25-2.19-.488-2.356-.246-.055-.426-.092-1.053-.098-.805-.008-1.486.002-1.872.179-.256.117-.454.38-.333.394.149.018.486.085.665.313.232.293.224.954.224.954s.133 1.819-.31 2.045c-.306.155-.723-.161-1.618-1.608-.459-.74-.806-1.56-.806-1.56s-.066-.153-.185-.234c-.145-.1-.347-.13-.347-.13l-2.143.011s-.322.01-.44.14c-.105.116-.008.356-.008.356s1.678 3.67 3.577 5.52c1.743 1.696 3.722 1.584 3.722 1.584h.896s.27-.028.409-.167c.127-.128.122-.368.122-.368s-.017-1.125.541-1.29c.55-.163 1.258 1.086 2.007 1.568.566.363.996.284.996.284l2.004-.027s1.048-.06.551-.83z" fill="#000"/></svg>